<?xml version="1.0" standalone="no"?>
<!DOCTYPE svg PUBLIC "-//W3C//DTD SVG 20010904//EN"
 "http://www.w3.org/TR/2001/REC-SVG-20010904/DTD/svg10.dtd">
<svg version="1.0" xmlns="http://www.w3.org/2000/svg"
 width="200px" height="200px" viewBox="0 0 1280.000000 1280.000000"
 preserveAspectRatio="xMidYMid meet">
<g transform="translate(0.000000,1280.000000) scale(0.100000,-0.100000)"
fill="#000000" stroke="none">
<path d="M8104 12210 c-411 -43 -849 -365 -1160 -855 -302 -474 -466 -1054
-468 -1650 0 -313 33 -555 113 -821 87 -288 209 -517 376 -707 115 -132 195
-196 350 -283 163 -92 318 -133 505 -134 187 0 337 37 527 131 289 142 554
396 762 729 142 227 291 581 360 855 130 522 130 1129 0 1585 -155 543 -468
935 -867 1089 -45 17 -110 38 -144 46 -79 19 -248 26 -354 15z"/>
<path d="M4132 12129 c-490 -96 -868 -502 -1018 -1092 -58 -230 -67 -318 -67
-642 -1 -260 2 -319 21 -438 58 -368 173 -713 339 -1022 233 -433 465 -688
858 -943 46 -30 191 -94 275 -122 696 -229 1305 131 1561 924 199 616 125
1411 -194 2091 -313 666 -809 1123 -1337 1235 -102 21 -351 27 -438 9z"/>
<path d="M10780 9483 c-336 -36 -658 -237 -955 -598 -268 -324 -482 -807 -594
-1340 -61 -288 -74 -428 -74 -775 0 -318 5 -390 48 -621 80 -432 213 -766 412
-1029 68 -90 219 -232 313 -296 148 -98 264 -142 435 -165 288 -37 623 89 905
343 112 101 134 124 229 243 318 397 538 952 632 1595 38 258 42 736 8 1005
-69 563 -289 1066 -586 1345 -235 219 -505 322 -773 293z"/>
<path d="M1755 9245 c-260 -36 -459 -137 -652 -332 -240 -242 -394 -562 -471
-983 -25 -138 -27 -161 -27 -470 0 -363 7 -434 70 -702 227 -965 840 -1723
1549 -1913 718 -192 1355 283 1560 1165 43 188 51 277 51 595 0 242 -4 335
-18 422 -84 554 -287 1040 -617 1481 -80 107 -205 238 -328 345 -262 226 -554
363 -847 397 -109 12 -153 11 -270 -5z"/>
<path d="M6315 7603 c-102 -6 -220 -25 -312 -49 -103 -28 -305 -114 -387 -166
-160 -101 -362 -279 -387 -342 -7 -17 -35 -78 -62 -136 -27 -58 -58 -127 -69
-155 -11 -27 -28 -66 -39 -85 -10 -19 -34 -69 -53 -110 -19 -41 -41 -86 -49
-100 -7 -14 -39 -77 -71 -140 -161 -322 -214 -424 -312 -602 -122 -221 -252
-446 -270 -468 -7 -8 -34 -53 -61 -100 -53 -93 -99 -165 -247 -393 -176 -271
-159 -246 -378 -555 -194 -274 -438 -595 -648 -852 -92 -113 -128 -174 -183
-315 -136 -349 -164 -754 -77 -1134 30 -131 80 -287 123 -381 38 -85 134 -247
195 -330 71 -95 234 -258 337 -336 196 -149 444 -254 690 -295 109 -18 156
-20 290 -16 177 6 286 27 478 91 347 117 745 203 1147 247 66 8 237 13 400 13
235 0 317 -3 465 -22 302 -37 656 -115 945 -208 364 -116 415 -126 690 -127
220 -1 304 10 497 69 574 174 1068 664 1279 1267 51 147 80 265 105 428 34
224 20 565 -32 804 -39 175 -129 423 -203 560 -70 128 -580 874 -775 1135 -31
41 -90 122 -131 179 -41 57 -86 118 -100 137 -14 19 -65 89 -115 156 -49 68
-105 144 -125 169 -150 194 -295 377 -354 448 -39 46 -94 114 -122 152 -28 38
-69 89 -90 113 -21 24 -91 106 -154 182 -119 142 -137 163 -502 581 -347 398
-505 513 -858 624 -148 46 -332 70 -475 62z"/>
</g>
</svg>
